<mxfile host="65bd71144e">
    <diagram id="RdUv2qYjftOaOUX0G6p5" name="ページ1">
        <mxGraphModel dx="728" dy="654" grid="0" gridSize="10" guides="1" tooltips="1" connect="1" arrows="1" fold="1" page="1" pageScale="1" pageWidth="1600" pageHeight="1200" background="#ffffff" math="0" shadow="0">
            <root>
                <mxCell id="0"/>
                <mxCell id="1" parent="0"/>
                <mxCell id="2" value="OrderController" style="swimlane;fontStyle=0;childLayout=stackLayout;horizontal=1;startSize=26;horizontalStack=0;resizeParent=1;resizeParentMax=0;resizeLast=0;collapsible=1;marginBottom=0;align=center;fontSize=14;rounded=0;strokeColor=#000000;fillColor=#FFFFFF;fontColor=#000000;" parent="1" vertex="1">
                    <mxGeometry x="835" y="551" width="534" height="99" as="geometry"/>
                </mxCell>
                <mxCell id="3" value="" style="text;strokeColor=#000000;fillColor=none;spacingLeft=4;spacingRight=4;overflow=hidden;rotatable=0;points=[[0,0.5],[1,0.5]];portConstraint=eastwest;fontSize=12;fontColor=#000000;" parent="2" vertex="1">
                    <mxGeometry y="26" width="534" height="30" as="geometry"/>
                </mxCell>
                <mxCell id="4" value="＋order(orderForm : OrderForm) : String&#10;" style="text;strokeColor=none;fillColor=none;spacingLeft=4;spacingRight=4;overflow=hidden;rotatable=0;points=[[0,0.5],[1,0.5]];portConstraint=eastwest;fontSize=12;fontColor=#000000;" parent="2" vertex="1">
                    <mxGeometry y="56" width="534" height="43" as="geometry"/>
                </mxCell>
                <mxCell id="5" value="" style="endArrow=classic;html=1;fontColor=#000000;" parent="1" edge="1">
                    <mxGeometry width="50" height="50" relative="1" as="geometry">
                        <mxPoint x="1124" y="668" as="sourcePoint"/>
                        <mxPoint x="1174" y="618" as="targetPoint"/>
                    </mxGeometry>
                </mxCell>
                <mxCell id="6" value="order_finished.html" style="swimlane;fontStyle=0;childLayout=stackLayout;horizontal=1;startSize=26;horizontalStack=0;resizeParent=1;resizeParentMax=0;resizeLast=0;collapsible=1;marginBottom=0;align=center;fontSize=14;rounded=0;strokeColor=#000000;fillColor=#FFFFFF;fontColor=#000000;" parent="1" vertex="1">
                    <mxGeometry x="364" y="799" width="258" height="152" as="geometry"/>
                </mxCell>
                <mxCell id="7" value="" style="text;strokeColor=#000000;fillColor=none;spacingLeft=4;spacingRight=4;overflow=hidden;rotatable=0;points=[[0,0.5],[1,0.5]];portConstraint=eastwest;fontSize=12;fontColor=#000000;" parent="6" vertex="1">
                    <mxGeometry y="26" width="258" height="126" as="geometry"/>
                </mxCell>
                <mxCell id="8" value="" style="shape=flexArrow;endArrow=classic;html=1;fontColor=#000000;fillColor=#a0522d;strokeColor=#6D1F00;width=10;endSize=6.888888888888889;" parent="1" edge="1">
                    <mxGeometry width="50" height="50" relative="1" as="geometry">
                        <mxPoint x="647" y="295" as="sourcePoint"/>
                        <mxPoint x="813" y="509" as="targetPoint"/>
                    </mxGeometry>
                </mxCell>
                <mxCell id="9" value="" style="shape=flexArrow;endArrow=classic;html=1;fontColor=#000000;fillColor=#a0522d;strokeColor=#6D1F00;" parent="1" edge="1">
                    <mxGeometry width="50" height="50" relative="1" as="geometry">
                        <mxPoint x="813" y="688" as="sourcePoint"/>
                        <mxPoint x="670" y="771" as="targetPoint"/>
                    </mxGeometry>
                </mxCell>
                <mxCell id="10" value="OrderService" style="swimlane;fontStyle=0;childLayout=stackLayout;horizontal=1;startSize=26;horizontalStack=0;resizeParent=1;resizeParentMax=0;resizeLast=0;collapsible=1;marginBottom=0;align=center;fontSize=14;rounded=0;strokeColor=#000000;fillColor=#FFFFFF;fontColor=#000000;" parent="1" vertex="1">
                    <mxGeometry x="1557" y="568" width="523" height="81" as="geometry"/>
                </mxCell>
                <mxCell id="11" value="＋update(orderForm : OrderForm) : void&#10;" style="text;strokeColor=#000000;fillColor=none;spacingLeft=4;spacingRight=4;overflow=hidden;rotatable=0;points=[[0,0.5],[1,0.5]];portConstraint=eastwest;fontSize=12;fontColor=#000000;" parent="10" vertex="1">
                    <mxGeometry y="26" width="523" height="55" as="geometry"/>
                </mxCell>
                <mxCell id="12" value="" style="shape=flexArrow;endArrow=classic;html=1;fontColor=#000000;fillColor=#a0522d;strokeColor=#6D1F00;" parent="1" edge="1">
                    <mxGeometry width="50" height="50" relative="1" as="geometry">
                        <mxPoint x="1415" y="597" as="sourcePoint"/>
                        <mxPoint x="1515.999999999999" y="597" as="targetPoint"/>
                    </mxGeometry>
                </mxCell>
                <mxCell id="13" value="OrderRepository" style="swimlane;fontStyle=0;childLayout=stackLayout;horizontal=1;startSize=26;horizontalStack=0;resizeParent=1;resizeParentMax=0;resizeLast=0;collapsible=1;marginBottom=0;align=center;fontSize=14;rounded=0;strokeColor=#000000;fillColor=#FFFFFF;fontColor=#000000;" parent="1" vertex="1">
                    <mxGeometry x="2284" y="542" width="534" height="103" as="geometry"/>
                </mxCell>
                <mxCell id="14" value="" style="text;strokeColor=#000000;fillColor=none;spacingLeft=4;spacingRight=4;overflow=hidden;rotatable=0;points=[[0,0.5],[1,0.5]];portConstraint=eastwest;fontSize=12;fontColor=#000000;" parent="13" vertex="1">
                    <mxGeometry y="26" width="534" height="30" as="geometry"/>
                </mxCell>
                <mxCell id="15" value="＋update(order : Order) : void&#10; ＋load( orderId : Integer ) : Order&#10;" style="text;strokeColor=none;fillColor=none;spacingLeft=4;spacingRight=4;overflow=hidden;rotatable=0;points=[[0,0.5],[1,0.5]];portConstraint=eastwest;fontSize=12;fontColor=#000000;" parent="13" vertex="1">
                    <mxGeometry y="56" width="534" height="47" as="geometry"/>
                </mxCell>
                <mxCell id="16" value="" style="shape=flexArrow;endArrow=classic;html=1;fontColor=#000000;fillColor=#a0522d;strokeColor=#6D1F00;" parent="1" edge="1">
                    <mxGeometry width="50" height="50" relative="1" as="geometry">
                        <mxPoint x="2135" y="597" as="sourcePoint"/>
                        <mxPoint x="2235.999999999999" y="597" as="targetPoint"/>
                    </mxGeometry>
                </mxCell>
                <mxCell id="17" value="Order" style="swimlane;fontStyle=0;childLayout=stackLayout;horizontal=1;startSize=26;horizontalStack=0;resizeParent=1;resizeParentMax=0;resizeLast=0;collapsible=1;marginBottom=0;align=center;fontSize=14;rounded=0;strokeColor=#000000;fillColor=#FFFFFF;fontColor=#000000;" parent="1" vertex="1">
                    <mxGeometry x="1696" y="835" width="255" height="112" as="geometry"/>
                </mxCell>
                <mxCell id="18" value="&#10;&#10;&#10;" style="text;strokeColor=#000000;fillColor=none;spacingLeft=4;spacingRight=4;overflow=hidden;rotatable=0;points=[[0,0.5],[1,0.5]];portConstraint=eastwest;fontSize=12;fontColor=#000000;" parent="17" vertex="1">
                    <mxGeometry y="26" width="255" height="86" as="geometry"/>
                </mxCell>
                <mxCell id="19" value="OrderItem" style="swimlane;fontStyle=0;childLayout=stackLayout;horizontal=1;startSize=26;horizontalStack=0;resizeParent=1;resizeParentMax=0;resizeLast=0;collapsible=1;marginBottom=0;align=center;fontSize=14;rounded=0;strokeColor=#000000;fillColor=#FFFFFF;fontColor=#000000;" parent="1" vertex="1">
                    <mxGeometry x="2251" y="827" width="244" height="113" as="geometry"/>
                </mxCell>
                <mxCell id="20" value="" style="text;strokeColor=#000000;fillColor=none;spacingLeft=4;spacingRight=4;overflow=hidden;rotatable=0;points=[[0,0.5],[1,0.5]];portConstraint=eastwest;fontSize=12;fontColor=#000000;" parent="19" vertex="1">
                    <mxGeometry y="26" width="244" height="87" as="geometry"/>
                </mxCell>
                <mxCell id="21" value="OrderTopping" style="swimlane;fontStyle=0;childLayout=stackLayout;horizontal=1;startSize=26;horizontalStack=0;resizeParent=1;resizeParentMax=0;resizeLast=0;collapsible=1;marginBottom=0;align=center;fontSize=14;rounded=0;strokeColor=#000000;fillColor=#FFFFFF;fontColor=#000000;" parent="1" vertex="1">
                    <mxGeometry x="2805" y="830" width="235" height="119" as="geometry"/>
                </mxCell>
                <mxCell id="22" value="" style="text;strokeColor=#000000;fillColor=none;spacingLeft=4;spacingRight=4;overflow=hidden;rotatable=0;points=[[0,0.5],[1,0.5]];portConstraint=eastwest;fontSize=12;fontColor=#000000;" parent="21" vertex="1">
                    <mxGeometry y="26" width="235" height="93" as="geometry"/>
                </mxCell>
                <mxCell id="23" value="User" style="swimlane;fontStyle=0;childLayout=stackLayout;horizontal=1;startSize=26;horizontalStack=0;resizeParent=1;resizeParentMax=0;resizeLast=0;collapsible=1;marginBottom=0;align=center;fontSize=14;rounded=0;strokeColor=#000000;fillColor=#FFFFFF;fontColor=#000000;" parent="1" vertex="1">
                    <mxGeometry x="1300" y="835" width="191" height="114" as="geometry"/>
                </mxCell>
                <mxCell id="24" value="" style="text;strokeColor=#000000;fillColor=none;spacingLeft=4;spacingRight=4;overflow=hidden;rotatable=0;points=[[0,0.5],[1,0.5]];portConstraint=eastwest;fontSize=12;fontColor=#000000;" parent="23" vertex="1">
                    <mxGeometry y="26" width="191" height="88" as="geometry"/>
                </mxCell>
                <mxCell id="25" value="" style="shape=flexArrow;endArrow=classic;html=1;fontColor=#000000;fillColor=#a0522d;strokeColor=#6D1F00;" parent="1" edge="1">
                    <mxGeometry width="50" height="50" relative="1" as="geometry">
                        <mxPoint x="2183" y="719" as="sourcePoint"/>
                        <mxPoint x="2022" y="808" as="targetPoint"/>
                    </mxGeometry>
                </mxCell>
                <mxCell id="26" value="" style="shape=flexArrow;endArrow=classic;html=1;fontColor=#000000;fillColor=#a0522d;strokeColor=#6D1F00;" parent="1" edge="1">
                    <mxGeometry width="50" height="50" relative="1" as="geometry">
                        <mxPoint x="1825.999999999999" y="690" as="sourcePoint"/>
                        <mxPoint x="1825.999999999999" y="801.5" as="targetPoint"/>
                    </mxGeometry>
                </mxCell>
                <mxCell id="27" value="" style="shape=flexArrow;endArrow=classic;html=1;fontColor=#000000;fillColor=#a0522d;strokeColor=#6D1F00;" parent="1" edge="1">
                    <mxGeometry width="50" height="50" relative="1" as="geometry">
                        <mxPoint x="2005.999999999999" y="893" as="sourcePoint"/>
                        <mxPoint x="2205" y="893" as="targetPoint"/>
                    </mxGeometry>
                </mxCell>
                <mxCell id="28" value="" style="shape=flexArrow;endArrow=classic;html=1;fontColor=#000000;fillColor=#a0522d;strokeColor=#6D1F00;" parent="1" edge="1">
                    <mxGeometry width="50" height="50" relative="1" as="geometry">
                        <mxPoint x="2550" y="888.7299999999996" as="sourcePoint"/>
                        <mxPoint x="2749" y="888.7299999999996" as="targetPoint"/>
                    </mxGeometry>
                </mxCell>
                <mxCell id="29" value="" style="shape=flexArrow;endArrow=classic;html=1;fontColor=#000000;fillColor=#a0522d;strokeColor=#6D1F00;entryX=0.996;entryY=0.324;entryDx=0;entryDy=0;entryPerimeter=0;" parent="1" edge="1">
                    <mxGeometry width="50" height="50" relative="1" as="geometry">
                        <mxPoint x="1650.999999999999" y="895" as="sourcePoint"/>
                        <mxPoint x="1513.2360000000008" y="894.5120000000006" as="targetPoint"/>
                        <Array as="points">
                            <mxPoint x="1565" y="894.5"/>
                        </Array>
                    </mxGeometry>
                </mxCell>
                <mxCell id="30" value="&lt;h1&gt;&lt;font style=&quot;font-size: 80px&quot;&gt;Order&lt;/font&gt;&lt;/h1&gt;" style="text;html=1;align=center;verticalAlign=middle;resizable=0;points=[];autosize=1;strokeColor=none;fillColor=none;fontColor=#000000;" parent="1" vertex="1">
                    <mxGeometry x="1670" y="205" width="228" height="70" as="geometry"/>
                </mxCell>
                <mxCell id="31" value="order_confirm.html" style="swimlane;fontStyle=0;childLayout=stackLayout;horizontal=1;startSize=26;horizontalStack=0;resizeParent=1;resizeParentMax=0;resizeLast=0;collapsible=1;marginBottom=0;align=center;fontSize=14;rounded=0;strokeColor=#000000;fillColor=#FFFFFF;fontColor=#000000;" parent="1" vertex="1">
                    <mxGeometry x="339" y="175" width="258" height="152" as="geometry"/>
                </mxCell>
                <mxCell id="32" value="" style="text;strokeColor=#000000;fillColor=none;spacingLeft=4;spacingRight=4;overflow=hidden;rotatable=0;points=[[0,0.5],[1,0.5]];portConstraint=eastwest;fontSize=12;fontColor=#000000;" parent="31" vertex="1">
                    <mxGeometry y="26" width="258" height="126" as="geometry"/>
                </mxCell>
                <mxCell id="38" value="OrderForm" style="swimlane;fontStyle=0;childLayout=stackLayout;horizontal=1;startSize=26;horizontalStack=0;resizeParent=1;resizeParentMax=0;resizeLast=0;collapsible=1;marginBottom=0;align=center;fontSize=14;rounded=0;strokeColor=#000000;fillColor=#FFFFFF;fontColor=#000000;" parent="1" vertex="1">
                    <mxGeometry x="855" y="209" width="534" height="189" as="geometry"/>
                </mxCell>
                <mxCell id="39" value="-destinationName : String&#10;-destinationEmail : String&#10;-destinationZipcode: String&#10;-destinationAddress : String&#10;-destinationTell : String&#10;-deliveryDate : Date&#10;-deliveryTime : Integer&#10;-paymentMethod : Integer&#10;-orderId : Integer" style="text;strokeColor=#000000;fillColor=none;spacingLeft=4;spacingRight=4;overflow=hidden;rotatable=0;points=[[0,0.5],[1,0.5]];portConstraint=eastwest;fontSize=12;fontColor=#000000;" parent="38" vertex="1">
                    <mxGeometry y="26" width="534" height="163" as="geometry"/>
                </mxCell>
                <mxCell id="41" value="" style="shape=flexArrow;endArrow=classic;html=1;fontColor=#000000;fillColor=#a0522d;strokeColor=#6D1F00;" parent="1" edge="1">
                    <mxGeometry width="50" height="50" relative="1" as="geometry">
                        <mxPoint x="1095" y="513" as="sourcePoint"/>
                        <mxPoint x="1095" y="421" as="targetPoint"/>
                    </mxGeometry>
                </mxCell>
                <mxCell id="42" value="" style="shape=flexArrow;endArrow=classic;html=1;fontColor=#000000;fillColor=#a0522d;strokeColor=#6D1F00;" parent="1" edge="1">
                    <mxGeometry width="50" height="50" relative="1" as="geometry">
                        <mxPoint x="1421" y="688" as="sourcePoint"/>
                        <mxPoint x="1652" y="812" as="targetPoint"/>
                    </mxGeometry>
                </mxCell>
            </root>
        </mxGraphModel>
    </diagram>
</mxfile>